<?xml version="1.0" standalone="no"?>
<!DOCTYPE svg PUBLIC "-//W3C//DTD SVG 20010904//EN"
 "http://www.w3.org/TR/2001/REC-SVG-20010904/DTD/svg10.dtd">
<svg version="1.0" xmlns="http://www.w3.org/2000/svg"
 width="384.000000pt" height="146.000000pt" viewBox="0 0 384.000000 146.000000"
 preserveAspectRatio="xMidYMid meet">

<g transform="translate(0.000000,146.000000) scale(0.100000,-0.100000)"
fill="#000000" stroke="none">
<path d="M3423 1249 c-18 -3 -57 -19 -87 -35 -49 -25 -57 -35 -75 -82 -13 -33
-21 -77 -21 -115 0 -56 4 -67 38 -112 25 -33 55 -59 92 -78 49 -25 55 -31 52
-55 -2 -15 -15 -48 -30 -75 -14 -26 -23 -48 -21 -50 66 -48 109 -49 142 -4 26
34 117 220 136 276 18 54 13 170 -8 217 -36 80 -134 131 -218 113z m88 -165
c7 -9 14 -34 14 -54 0 -90 -98 -111 -140 -30 -18 34 -10 59 27 84 29 21 82 20
99 0z"/>
<path d="M684 1225 c-21 -22 -25 -33 -22 -78 3 -51 4 -52 44 -65 74 -24 132
21 118 93 -13 74 -89 101 -140 50z"/>
<path d="M1834 1211 c-86 -46 -135 -104 -172 -203 -28 -75 -19 -188 17 -218 3
-3 13 -24 21 -48 10 -29 26 -49 45 -60 17 -9 32 -20 35 -23 9 -11 42 -18 111
-24 100 -10 166 13 222 75 62 69 76 105 84 209 7 99 -5 159 -39 197 -10 11
-18 26 -18 32 0 7 -5 12 -12 12 -7 0 -24 11 -38 25 -45 43 -195 59 -256 26z
m158 -186 c67 -60 62 -147 -11 -202 -48 -37 -109 -45 -132 -17 -21 25 -38 105
-32 146 6 43 54 105 86 110 35 6 50 -1 89 -37z"/>
<path d="M248 1108 c-21 -17 -33 -104 -17 -124 7 -9 31 -14 69 -14 94 0 94 -4
-12 -162 -34 -51 -36 -59 -30 -104 l7 -49 115 -3 c64 -1 133 1 155 6 l40 8 -3
49 c-1 27 -5 51 -8 54 -3 3 -35 5 -70 4 -43 -2 -64 1 -64 9 0 12 79 144 112
187 11 15 18 41 18 70 l0 47 -64 17 c-76 20 -225 23 -248 5z"/>
<path d="M1429 1077 c-15 -18 -36 -52 -48 -75 l-22 -43 -43 32 c-24 17 -59 46
-77 65 -18 19 -36 34 -40 34 -4 0 -21 -20 -37 -43 l-29 -44 37 -52 c20 -28 56
-67 78 -87 45 -38 51 -57 27 -90 -29 -43 -115 -186 -115 -192 1 -10 41 -38 67
-46 18 -6 32 5 82 64 34 39 61 76 61 82 0 6 10 25 23 42 33 45 101 161 139
239 35 73 33 91 -11 113 -13 7 -28 17 -34 23 -18 18 -30 13 -58 -22z"/>
<path d="M2311 1076 c-18 -21 -26 -196 -12 -252 14 -55 57 -124 77 -124 8 0
14 -4 14 -10 0 -5 7 -10 16 -10 8 0 23 -7 31 -16 11 -10 25 -13 42 -9 44 11
131 59 131 72 0 7 5 13 11 13 33 0 76 205 63 297 -6 38 -9 41 -41 45 -52 6
-63 -8 -68 -89 -7 -99 -33 -148 -83 -157 -28 -4 -40 -2 -49 10 -18 24 -33 107
-33 179 l0 65 -44 0 c-25 0 -48 -6 -55 -14z"/>
<path d="M2844 1050 c-50 -55 -64 -107 -65 -239 -1 -66 2 -124 5 -130 9 -13
85 -14 105 -2 10 7 16 39 19 115 4 86 8 108 23 122 16 14 24 15 44 6 32 -15
44 -45 59 -147 l11 -80 50 0 50 0 3 82 c4 109 -15 173 -67 224 -21 21 -42 39
-47 39 -4 0 -15 6 -23 14 -9 8 -44 18 -77 21 -60 7 -62 7 -90 -25z"/>
<path d="M675 970 c-3 -5 -7 -75 -8 -155 -2 -168 1 -175 81 -183 l49 -4 7 57
c3 31 9 106 12 166 6 105 5 109 -14 109 -12 0 -24 5 -27 10 -8 13 -92 13 -100
0z"/>
<path d="M217 453 c-3 -5 -7 -63 -9 -130 -4 -167 -7 -164 166 -162 131 1 351
-7 458 -17 55 -5 58 -4 71 23 8 15 17 74 21 130 7 101 7 103 -19 129 l-26 26
-242 -4 c-133 -2 -281 1 -328 5 -49 5 -89 5 -92 0z"/>
<path d="M1599 458 c-1 -1 -3 -61 -5 -131 -5 -172 -8 -168 164 -166 129 1 364
-7 459 -17 51 -5 53 -4 73 28 15 24 19 42 15 66 -3 18 -1 57 5 87 9 45 9 59
-5 84 -8 17 -26 33 -39 37 -13 3 -125 4 -248 2 -122 -1 -267 1 -320 5 -54 5
-99 7 -99 5z"/>
<path d="M2986 452 c-3 -5 -6 -64 -7 -131 -2 -168 -10 -161 190 -161 86 0 230
-4 321 -9 202 -11 194 -17 204 134 8 122 -1 152 -49 161 -17 3 -130 4 -251 2
-120 -2 -260 1 -310 5 -56 5 -94 5 -98 -1z"/>
</g>
</svg>
